<?xml version="1.0" encoding="UTF-8" standalone="no" ?>
<!DOCTYPE svg PUBLIC "-//W3C//DTD SVG 1.1//EN" "http://www.w3.org/Graphics/SVG/1.1/DTD/svg11.dtd">
<svg xmlns="http://www.w3.org/2000/svg" xmlns:xlink="http://www.w3.org/1999/xlink" version="1.1" width="1280" height="1024" viewBox="0 0 1280 1024" xml:space="preserve">
<desc>Created with Fabric.js 5.3.0</desc>
<defs>
</defs>
<g transform="matrix(1 0 0 1 640 512)" id="background-logo"  >
<rect style="stroke: none; stroke-width: 0; stroke-dasharray: none; stroke-linecap: butt; stroke-dashoffset: 0; stroke-linejoin: miter; stroke-miterlimit: 4; fill: rgb(255,255,255); fill-rule: nonzero; opacity: 1;"  paint-order="stroke"  x="-640" y="-512" rx="0" ry="0" width="1280" height="1024" />
</g>
<g transform="matrix(1.9211538461538462 0 0 1.9211538461538462 636.6154072115387 506.340626576923)" id="text-logo"  >
<g style=""  paint-order="stroke"   >
		<g transform="matrix(1 0 0 1 0 0)" id="text-logo-path-0"  >
<filter id="SVGID_73927" y="-22.97168699596602%" height="145.94337399193205%" x="-21.481651155453733%" width="142.96330231090747%" >
	<feGaussianBlur in="SourceAlpha" stdDeviation="0"></feGaussianBlur>
	<feOffset dx="7.404255319148937" dy="1.8510638297872342" result="oBlur" ></feOffset>
	<feFlood flood-color="rgb(255,222,89)" flood-opacity="1"/>
	<feComposite in2="oBlur" operator="in" />
	<feMerge>
		<feMergeNode></feMergeNode>
		<feMergeNode in="SourceGraphic"></feMergeNode>
	</feMerge>
</filter>
<path style="stroke: rgb(0,0,0); stroke-width: 7.404255319148935; stroke-dasharray: none; stroke-linecap: butt; stroke-dashoffset: 0; stroke-linejoin: miter; stroke-miterlimit: 4; fill: rgb(255,255,255); fill-rule: nonzero; opacity: 1;filter: url(#SVGID_73927);"  paint-order="stroke"  transform=" translate(-250.38500000000002, 30.275000000000006)" d="M 0.52 -0.44 L 0.52 -0.44 L 11.31 -60.2 Q 11.4 -60.55 11.75 -60.55 L 11.75 -60.55 L 24.36 -60.55 Q 24.71 -60.55 24.8 -60.2 L 24.8 -60.2 L 35.15 -0.44 Q 35.24 0 34.8 0 L 34.8 0 L 25.14 0 Q 24.8 0 24.71 -0.44 L 24.71 -0.44 L 23.75 -6.79 L 11.92 -6.79 L 10.96 -0.44 Q 10.88 0 10.53 0 L 10.53 0 L 0.87 0 Q 0.52 0 0.52 -0.44 Z M 17.57 -40.54 L 13.66 -16.1 L 22.01 -16.1 L 18.44 -40.54 L 17.92 -43.76 L 17.57 -40.54 Z M 56.64 0 L 46.81 0 Q 46.46 0 46.46 -0.44 L 46.46 -0.44 L 46.63 -60.2 Q 46.63 -60.55 46.98 -60.55 L 46.98 -60.55 L 57.59 -60.55 Q 57.94 -60.55 58.2 -60.2 L 58.2 -60.2 L 66.12 -48.72 L 74.04 -60.2 Q 74.3 -60.55 74.65 -60.55 L 74.65 -60.55 L 85.35 -60.55 Q 85.7 -60.55 85.7 -60.2 L 85.7 -60.2 L 85.87 -0.44 Q 85.87 0 85.52 0 L 85.52 0 L 75.69 0 Q 75.34 0 75.34 -0.44 L 75.34 -0.44 L 75.25 -44.81 L 66.12 -31.58 L 57.07 -44.81 L 56.98 -0.44 Q 56.98 0 56.64 0 L 56.64 0 Z M 96.05 -0.44 L 96.05 -0.44 L 106.84 -60.2 Q 106.92 -60.55 107.27 -60.55 L 107.27 -60.55 L 119.89 -60.55 Q 120.23 -60.55 120.32 -60.2 L 120.32 -60.2 L 130.67 -0.44 Q 130.76 0 130.33 0 L 130.33 0 L 120.67 0 Q 120.32 0 120.23 -0.44 L 120.23 -0.44 L 119.28 -6.79 L 107.44 -6.79 L 106.49 -0.44 Q 106.4 0 106.05 0 L 106.05 0 L 96.4 0 Q 96.05 0 96.05 -0.44 Z M 113.1 -40.54 L 109.19 -16.1 L 117.54 -16.1 L 113.97 -40.54 L 113.45 -43.76 L 113.1 -40.54 Z M 157.99 -0.09 L 142.42 0 Q 141.98 0 141.98 -0.44 L 141.98 -0.44 L 142.16 -60.2 Q 142.16 -60.55 142.51 -60.55 L 142.51 -60.55 L 158.78 -60.64 Q 163.56 -60.73 167.52 -58.38 Q 171.48 -56.03 173.83 -52.07 Q 176.18 -48.11 176.18 -43.33 L 176.18 -43.33 L 176.18 -18.36 Q 176.18 -13.31 173.74 -9.18 Q 171.3 -5.05 167.21 -2.61 Q 163.13 -0.17 157.99 -0.09 L 157.99 -0.09 Z M 152.69 -50.11 L 152.6 -10.7 L 157.99 -10.7 Q 161.21 -10.7 163.43 -12.96 Q 165.65 -15.23 165.65 -18.36 L 165.65 -18.36 L 165.65 -43.41 Q 165.65 -46.2 163.6 -48.24 Q 161.56 -50.29 158.78 -50.2 L 158.78 -50.2 L 152.69 -50.11 Z M 217.33 0 L 189.23 0 Q 188.88 0 188.88 -0.44 L 188.88 -0.44 L 188.96 -60.2 Q 188.96 -60.55 189.31 -60.55 L 189.31 -60.55 L 217.24 -60.55 Q 217.59 -60.55 217.59 -60.12 L 217.59 -60.12 L 217.59 -50.37 Q 217.59 -50.03 217.24 -50.03 L 217.24 -50.03 L 199.4 -50.03 L 199.4 -36.45 L 217.24 -36.45 Q 217.59 -36.45 217.59 -36.11 L 217.59 -36.11 L 217.67 -26.27 Q 217.67 -25.93 217.33 -25.93 L 217.33 -25.93 L 199.4 -25.93 L 199.4 -10.7 L 217.33 -10.7 Q 217.67 -10.7 217.67 -10.27 L 217.67 -10.27 L 217.67 -0.35 Q 217.67 0 217.33 0 L 217.33 0 Z M 247.25 0.87 L 247.25 0.87 Q 242.64 0.87 238.73 -1.52 Q 234.81 -3.92 232.51 -7.92 Q 230.2 -11.92 230.2 -16.7 L 230.2 -16.7 L 230.38 -60.2 Q 230.38 -60.55 230.72 -60.55 L 230.72 -60.55 L 240.47 -60.55 Q 240.82 -60.55 240.82 -60.2 L 240.82 -60.2 L 240.82 -16.7 Q 240.82 -13.75 242.69 -11.7 Q 244.56 -9.66 247.25 -9.66 L 247.25 -9.66 Q 250.04 -9.66 251.91 -11.7 Q 253.78 -13.75 253.78 -16.7 L 253.78 -16.7 L 253.78 -60.2 Q 253.78 -60.55 254.13 -60.55 L 254.13 -60.55 L 263.87 -60.55 Q 264.22 -60.55 264.22 -60.2 L 264.22 -60.2 L 264.39 -16.7 Q 264.39 -11.83 262.09 -7.83 Q 259.78 -3.83 255.91 -1.48 Q 252.04 0.87 247.25 0.87 Z M 291.89 0.87 L 291.89 0.87 Q 287.19 0.87 283.32 -1.52 Q 279.44 -3.92 277.14 -7.87 Q 274.83 -11.83 274.83 -16.62 L 274.83 -16.62 L 274.83 -20.62 Q 274.83 -21.05 275.27 -21.05 L 275.27 -21.05 L 285.01 -21.05 Q 285.36 -21.05 285.36 -20.62 L 285.36 -20.62 L 285.36 -16.62 Q 285.36 -13.75 287.27 -11.7 Q 289.19 -9.66 291.89 -9.66 L 291.89 -9.66 Q 294.58 -9.66 296.5 -11.75 Q 298.41 -13.83 298.41 -16.62 L 298.41 -16.62 Q 298.41 -19.84 294.23 -22.19 L 294.23 -22.19 Q 292.84 -22.97 289.88 -24.62 Q 286.93 -26.27 284.32 -27.75 L 284.32 -27.75 Q 279.53 -30.54 277.23 -34.76 Q 274.92 -38.98 274.92 -44.28 L 274.92 -44.28 Q 274.92 -49.16 277.27 -53.03 Q 279.62 -56.9 283.49 -59.16 Q 287.36 -61.42 291.89 -61.42 L 291.89 -61.42 Q 296.5 -61.42 300.37 -59.12 Q 304.24 -56.81 306.54 -52.94 Q 308.85 -49.07 308.85 -44.28 L 308.85 -44.28 L 308.85 -37.15 Q 308.85 -36.8 308.5 -36.8 L 308.5 -36.8 L 298.76 -36.8 Q 298.41 -36.8 298.41 -37.15 L 298.41 -37.15 L 298.32 -44.28 Q 298.32 -47.33 296.41 -49.24 Q 294.5 -51.16 291.89 -51.16 L 291.89 -51.16 Q 289.19 -51.16 287.27 -49.11 Q 285.36 -47.07 285.36 -44.28 L 285.36 -44.28 Q 285.36 -41.41 286.58 -39.5 Q 287.8 -37.58 291.02 -35.84 L 291.02 -35.84 Q 291.45 -35.58 292.71 -34.93 Q 293.97 -34.28 295.45 -33.45 Q 296.93 -32.63 298.11 -32.02 Q 299.28 -31.41 299.54 -31.23 L 299.54 -31.23 Q 303.89 -28.8 306.41 -25.27 Q 308.94 -21.75 308.94 -16.62 L 308.94 -16.62 Q 308.94 -11.66 306.63 -7.7 Q 304.33 -3.74 300.45 -1.44 Q 296.58 0.87 291.89 0.87 Z M 359.83 0 L 349.31 0 Q 348.96 0 348.87 -0.44 L 348.87 -0.44 L 336.86 -60.2 Q 336.78 -60.55 337.21 -60.55 L 337.21 -60.55 L 347.04 -60.55 Q 347.39 -60.55 347.48 -60.2 L 347.48 -60.2 L 354.61 -20.36 L 361.57 -60.2 Q 361.66 -60.55 362.01 -60.55 L 362.01 -60.55 L 371.75 -60.55 Q 372.19 -60.55 372.1 -60.2 L 372.1 -60.2 L 360.27 -0.44 Q 360.18 0 359.83 0 L 359.83 0 Z M 396.72 0.87 L 396.72 0.87 Q 392.02 0.87 388.15 -1.52 Q 384.28 -3.92 381.97 -7.87 Q 379.67 -11.83 379.67 -16.62 L 379.67 -16.62 L 379.67 -20.62 Q 379.67 -21.05 380.1 -21.05 L 380.1 -21.05 L 389.85 -21.05 Q 390.2 -21.05 390.2 -20.62 L 390.2 -20.62 L 390.2 -16.62 Q 390.2 -13.75 392.11 -11.7 Q 394.02 -9.66 396.72 -9.66 L 396.72 -9.66 Q 399.42 -9.66 401.33 -11.75 Q 403.25 -13.83 403.25 -16.62 L 403.25 -16.62 Q 403.25 -19.84 399.07 -22.19 L 399.07 -22.19 Q 397.68 -22.97 394.72 -24.62 Q 391.76 -26.27 389.15 -27.75 L 389.15 -27.75 Q 384.37 -30.54 382.06 -34.76 Q 379.76 -38.98 379.76 -44.28 L 379.76 -44.28 Q 379.76 -49.16 382.1 -53.03 Q 384.45 -56.9 388.32 -59.16 Q 392.2 -61.42 396.72 -61.42 L 396.72 -61.42 Q 401.33 -61.42 405.2 -59.12 Q 409.07 -56.81 411.38 -52.94 Q 413.69 -49.07 413.69 -44.28 L 413.69 -44.28 L 413.69 -37.15 Q 413.69 -36.8 413.34 -36.8 L 413.34 -36.8 L 403.59 -36.8 Q 403.25 -36.8 403.25 -37.15 L 403.25 -37.15 L 403.16 -44.28 Q 403.16 -47.33 401.24 -49.24 Q 399.33 -51.16 396.72 -51.16 L 396.72 -51.16 Q 394.02 -51.16 392.11 -49.11 Q 390.2 -47.07 390.2 -44.28 L 390.2 -44.28 Q 390.2 -41.41 391.41 -39.5 Q 392.63 -37.58 395.85 -35.84 L 395.85 -35.84 Q 396.29 -35.58 397.55 -34.93 Q 398.81 -34.28 400.29 -33.45 Q 401.77 -32.63 402.94 -32.02 Q 404.12 -31.41 404.38 -31.23 L 404.38 -31.23 Q 408.73 -28.8 411.25 -25.27 Q 413.77 -21.75 413.77 -16.62 L 413.77 -16.62 Q 413.77 -11.66 411.47 -7.7 Q 409.16 -3.74 405.29 -1.44 Q 401.42 0.87 396.72 0.87 Z M 443.44 -0.44 L 443.44 -0.44 L 454.23 -60.2 Q 454.31 -60.55 454.66 -60.55 L 454.66 -60.55 L 467.28 -60.55 Q 467.63 -60.55 467.71 -60.2 L 467.71 -60.2 L 478.07 -0.44 Q 478.15 0 477.72 0 L 477.72 0 L 468.06 0 Q 467.71 0 467.63 -0.44 L 467.63 -0.44 L 466.67 -6.79 L 454.84 -6.79 L 453.88 -0.44 Q 453.79 0 453.44 0 L 453.44 0 L 443.79 0 Q 443.44 0 443.44 -0.44 Z M 460.49 -40.54 L 456.58 -16.1 L 464.93 -16.1 L 461.36 -40.54 L 460.84 -43.76 L 460.49 -40.54 Z M 499.9 0 L 490.07 0 Q 489.64 0 489.64 -0.44 L 489.64 -0.44 L 489.72 -60.2 Q 489.72 -60.55 490.07 -60.55 L 490.07 -60.55 L 499.82 -60.55 Q 500.16 -60.55 500.16 -60.2 L 500.16 -60.2 L 500.25 -0.44 Q 500.25 0 499.9 0 L 499.9 0 Z" stroke-linecap="round" />
</g>
</g>
</g>
</svg>